<svg xmlns="http://www.w3.org/2000/svg" viewBox="0 0 174.733 40"><defs><style>.a{fill:#2673bb;}.b{fill:#343355;}</style></defs><path class="a" d="M36.277,11.192,34.915,8.854a1.891,1.891,0,0,0-.636-.636l-4.54-2.611c-.227-.136-.409-.023-.409.227V8.854L22.293,4.881l2.724-1.566c.227-.136.227-.341,0-.477L20.5.227A1.971,1.971,0,0,0,19.614,0h-2.7a2.05,2.05,0,0,0-.885.227l-4.54,2.611c-.227.136-.227.341,0,.477l2.724,1.566L7.174,8.854V5.812c0-.25-.182-.363-.409-.227L2.225,8.2a2.2,2.2,0,0,0-.636.658L.227,11.192A1.971,1.971,0,0,0,0,12.077v5.244c0,.25.182.363.409.227L3,16.05v7.968L.409,22.52C.182,22.406,0,22.5,0,22.747v5.244a2.431,2.431,0,0,0,.227.885l1.362,2.338a1.891,1.891,0,0,0,.636.636l4.54,2.633c.227.136.409.023.409-.227V31.192l7.015,3.927-2.7,1.566c-.227.136-.227.341,0,.477l4.54,2.611a1.971,1.971,0,0,0,.885.227h2.7a2.431,2.431,0,0,0,.885-.227l4.54-2.611c.227-.136.227-.341,0-.477l-2.7-1.566,6.947-3.9v3.019c0,.25.182.363.409.227l4.54-2.611a1.891,1.891,0,0,0,.636-.636l1.362-2.338a1.971,1.971,0,0,0,.227-.885V22.747c0-.25-.182-.363-.409-.227l-2.52,1.453V16.05l2.588,1.5c.227.136.409.023.409-.227V12.054A1.986,1.986,0,0,0,36.277,11.192Zm-6.924-.976V11.8a2.431,2.431,0,0,0,.227.885l.7,1.2a1.891,1.891,0,0,0,.636.636l1.43.817v9.262l-1.5.863a1.891,1.891,0,0,0-.636.636l-.045.068L25.9,23.7V19.364a.537.537,0,0,0-.25-.431l-.068-.045a.492.492,0,0,0-.5,0l-1.18.681V16.731L21.453,15.3l1.18-.681a.537.537,0,0,0,.25-.431V14.1a.573.573,0,0,0-.25-.431L18.842,11.51V6.561h.114a2.431,2.431,0,0,0,.885-.227l1.294-.749Zm-13.8,11.056L13.8,20.25V17.412l2.474-1.43L18.025,17c.136.068.25.136.25.136s.114-.068.25-.136l1.748-1.022,2.452,1.43V20.25l-1.748,1.022c-.136.068-.25.136-.25.136V23.7l-2.452,1.43L15.8,23.7V21.407S15.687,21.339,15.551,21.271Zm-11.373-5.9,1.43-.817a1.891,1.891,0,0,0,.636-.636l.7-1.2a1.971,1.971,0,0,0,.227-.885V10.216l8.218-4.631,1.294.749a2.319,2.319,0,0,0,.885.227h.114V11.51l-3.791,2.179a.537.537,0,0,0-.25.431v.091a.573.573,0,0,0,.25.431l1.18.681L12.6,16.754v2.838l-1.18-.681a.636.636,0,0,0-.5,0l-.068.045a.537.537,0,0,0-.25.431v4.359l-4.336,2.52L6.22,26.2a2.122,2.122,0,0,0-.636-.636l-1.43-.817V15.369ZM21.135,34.415l-1.294-.749a1.971,1.971,0,0,0-.885-.227H17.571a2.431,2.431,0,0,0-.885.227l-1.317.749-8.2-4.586V28.241a2.317,2.317,0,0,0-.227-.863l-.068-.136,4.336-2.5,3.791,2.179a.492.492,0,0,0,.5,0l.068-.045a.573.573,0,0,0,.25-.431V25.085l2.474,1.43,2.452-1.43v1.362a.537.537,0,0,0,.25.431l.068.045a.492.492,0,0,0,.5,0l3.768-2.179L29.6,27.219l-.068.114a1.971,1.971,0,0,0-.227.885v1.635Z"/><path class="b" d="M469.866,79.389h-2.179V68.606a8.593,8.593,0,1,0-8.6,8.581h1.09v2.179h-1.09a10.783,10.783,0,1,1,10.783-10.783Z" transform="translate(-346.529 -44.679)"/><path class="b" d="M353.283,79.466a10.783,10.783,0,1,1,7.628-18.411L359.367,62.6a8.6,8.6,0,1,0,0,12.168l1.544,1.544A10.7,10.7,0,0,1,353.283,79.466Z" transform="translate(-264.747 -44.756)"/><path class="b" d="M624.044,79.389h-2.179V68.606a8.6,8.6,0,1,0-8.6,8.581h1.09v2.179h-1.067a10.783,10.783,0,1,1,10.783-10.783V79.389Z" transform="translate(-465.724 -44.679)"/><path class="b" d="M724.379,83.177H722.2V73.483A10.793,10.793,0,0,1,732.983,62.7v2.179a8.613,8.613,0,0,0-8.6,8.6Z" transform="translate(-558.25 -48.466)"/><rect class="b" width="2.179" height="29.444" transform="translate(128.967 5.267)"/><path class="b" d="M243.369,53.03H233.244V50.851h10.125a5.7,5.7,0,0,0,0-11.4h-3.791a7.877,7.877,0,0,1,0-15.755H249.7v2.179H239.577a5.7,5.7,0,1,0,0,11.4h3.791a7.877,7.877,0,1,1,0,15.755Z" transform="translate(-179.101 -18.32)"/></svg>